<?xml version="1.0" standalone="no"?>
<!DOCTYPE svg PUBLIC "-//W3C//DTD SVG 20010904//EN"
 "http://www.w3.org/TR/2001/REC-SVG-20010904/DTD/svg10.dtd">
<svg version="1.0" xmlns="http://www.w3.org/2000/svg"
 width="512.000000pt" height="512.000000pt" viewBox="0 0 512.000000 512.000000"
 preserveAspectRatio="xMidYMid meet">
<metadata>
Created by potrace 1.11, written by Peter Selinger 2001-2013
</metadata>
<g transform="translate(0.000000,512.000000) scale(0.100000,-0.100000)"
fill="#000000" stroke="none">
<path d="M1717 5104 c-1 -1 -31 -5 -67 -8 -186 -19 -382 -94 -565 -214 -89
-59 -266 -236 -326 -327 -106 -161 -179 -336 -203 -490 -2 -16 -8 -50 -12 -75
-4 -25 -8 -356 -8 -736 l-1 -691 -58 -53 c-105 -96 -185 -218 -230 -350 -35
-101 -39 -128 -41 -247 -5 -293 151 -624 443 -936 l54 -57 4 -90 c22 -561 624
-941 1223 -773 76 21 225 94 288 142 l53 39 36 -24 c31 -21 59 -29 86 -25 4 0
7 -7 7 -17 1 -65 77 -145 148 -155 81 -13 175 53 188 131 3 23 9 41 13 40 26
-3 53 6 84 26 l36 25 55 -40 c158 -113 344 -175 545 -183 512 -18 954 355 964
814 2 70 5 88 22 105 31 30 147 166 175 205 14 18 34 45 46 59 66 83 167 273
207 392 57 164 69 361 32 509 -36 142 -150 326 -263 423 l-45 38 -3 707 c-1
389 -5 723 -8 742 -59 358 -244 661 -525 861 -114 81 -308 172 -411 194 -8 2
-35 8 -60 13 -25 6 -67 14 -95 18 -40 6 -1781 14 -1788 8z"/>
</g>
</svg>
